<?xml version="1.0" encoding="utf-8"?>
<!-- Generator: Adobe Illustrator 19.1.0, SVG Export Plug-In . SVG Version: 6.00 Build 0)  -->
<svg version="1.1" xmlns="http://www.w3.org/2000/svg" xmlns:xlink="http://www.w3.org/1999/xlink" x="0px" y="0px"
	 viewBox="0 0 1600 939.362" enable-background="new 0 0 1600 939.362" xml:space="preserve">
<g id="bak-b0">
</g>
<g id="CCC-c0">
</g>
<g id="vexels">
	<g>
		<g>
			<path fill="#3E3C3C" d="M798.709,823.946l-1.138-2.464c-0.561-1.183-2.047-1.733-3.299-1.225
				c-1.354,0.464-1.957,1.861-1.398,3.005l1.278,2.772l10.115,21.947c0.096,0.086,0.188,0.254,0.23,0.338
				c0,0.042,0.052,0.042,0.052,0.042c0.046,0.085,0.14,0.169,0.232,0.256c0,0.083,0.046,0.083,0.046,0.125
				c0.138,0.086,0.232,0.127,0.322,0.213c0.048,0,0.048,0,0.048,0c0.142,0.085,0.327,0.21,0.421,0.252c0.046,0,0.046,0,0.046,0
				s0.048,0,0.048,0.044c0.092,0,0.278,0.042,0.371,0.081c0.042,0,0.092,0,0.092,0c0.138,0.046,0.326,0.046,0.469,0.046
				c0.138,0,0.278,0,0.464-0.046c0.044,0,0.09,0,0.09,0c0.14-0.039,0.232-0.081,0.373-0.081c0.048-0.044,0.048-0.044,0.092-0.044
				c0.142-0.042,0.281-0.167,0.373-0.211c0.092-0.041,0.092-0.041,0.092-0.041c0.094-0.086,0.186-0.127,0.278-0.213
				c0.05-0.042,0.05-0.042,0.094-0.125c0.048-0.086,0.186-0.171,0.232-0.256c0.046,0,0.046,0,0.046-0.042
				c0.094-0.085,0.145-0.252,0.191-0.338l0.432-0.933l-2.757-5.968L798.709,823.946z M897.364,823.769
				c0.789-1.059,0.605-2.496-0.555-3.219c-1.162-0.802-2.7-0.59-3.581,0.509l-5.3,6.612l3.156,3.86L897.364,823.769z
				 M819.056,820.256c-1.254-0.508-2.788,0.042-3.347,1.225l-6.735,14.557l2.764,5.977l8.714-18.754
				C820.963,822.118,820.36,820.72,819.056,820.256z M759.026,811.309c-1.094-1.092-2.549-1.694-4.094-1.694
				c-1.547,0-2.998,0.601-4.091,1.694l-18.738,18.741c-2.253,2.258-2.253,5.924,0,8.179l18.738,18.741
				c1.093,1.092,2.544,1.692,4.091,1.692c1.545,0,3-0.6,4.094-1.69l18.736-18.743c1.096-1.096,1.698-2.542,1.698-4.092
				c0-1.539-0.601-2.994-1.698-4.087L759.026,811.309z M774.854,835.819l-18.241,18.241c-0.899,0.898-2.463,0.898-3.356,0
				l-18.243-18.241c-0.924-0.927-0.924-2.433-0.004-3.36l18.246-18.241c0.015-0.017,0.031-0.031,0.048-0.042v15.116
				c-0.742,0.25-1.426,0.647-1.998,1.221c-0.968,0.967-1.5,2.255-1.5,3.623c0,1.372,0.532,2.663,1.5,3.625
				c0.968,0.973,2.258,1.506,3.624,1.506c1.371,0,2.661-0.53,3.63-1.506c1.997-1.995,1.997-5.249,0-7.254
				c-0.571-0.57-1.256-0.966-1.999-1.216v-15.116c0.015,0.011,0.035,0.026,0.052,0.042l18.241,18.241
				c0.449,0.449,0.692,1.045,0.692,1.677C775.545,834.771,775.302,835.363,774.854,835.819z M888.532,834.688l-3.121-3.893
				l-7.853-9.735c-0.796-1.1-2.422-1.311-3.54-0.509c-1.162,0.723-1.392,2.159-0.603,3.219l8.835,10.919l-8.835,11.006
				c-0.789,1.015-0.559,2.499,0.603,3.217c0.419,0.296,0.933,0.467,1.488,0.467c0.793,0,1.534-0.383,2.053-0.977l7.853-9.775
				l8.39,10.498c0.485,0.603,1.251,0.916,1.964,0.916c0.532,0,1.153-0.245,1.598-0.6c1.054-0.839,1.137-2.36,0.294-3.41
				L888.532,834.688z M847.405,819.797c-7.52,0-13.643,6.65-13.643,14.822c0,8.109,6.123,14.71,13.643,14.71
				c4.62,0,8.876-2.52,11.384-6.746c0.605-1.091,0.3-2.45-0.765-3.259c-0.344-0.221-0.749-0.338-1.162-0.338
				c-0.804,0-1.519,0.43-1.907,1.137c-1.576,2.775-4.469,4.497-7.55,4.497c-4.563,0-8.346-3.63-9.023-8.543h20.295
				c1.269,0,2.26-0.986,2.26-2.244l-0.002-0.3C860.358,825.704,854.541,819.797,847.405,819.797z M838.713,831.422
				c1.232-4.164,4.646-6.913,8.692-6.913c3.965,0,7.395,2.81,8.55,6.913H838.713z M963.675,844.544
				c-0.046-0.002-3.494-0.002-3.544-0.002c-1.315,0-2.845-0.756-2.845-2.88v-23.569c0-1.387-1.131-2.51-2.522-2.51
				c-1.341,0-2.514,1.173-2.514,2.51v23.569c0,4.66,3.094,7.669,7.881,7.669c0.061,0,3.518,0,3.577-0.004
				c1.241-0.088,2.22-1.129,2.22-2.391C965.928,845.668,964.931,844.618,963.675,844.544z M1002.161,836.765
				c-1.07-1.571-2.744-2.669-4.651-3.513c-1.859-0.807-4.046-1.356-6.419-1.779h-0.094c-2.509-0.423-4.6-1.105-5.81-1.865
				c-0.605-0.377-1.026-0.76-1.26-1.1c-0.23-0.335-0.324-0.679-0.324-1.181c0-0.892,0.509-1.823,1.771-2.669
				c1.252-0.846,3.114-1.44,5.205-1.44c2.836,0,5.115,1.269,7.489,2.707c1.115,0.677,2.604,0.381,3.299-0.635
				c0.745-0.973,0.421-2.328-0.647-3.005c-2.374-1.396-5.677-3.386-10.141-3.386c-3.024,0-5.856,0.804-8.044,2.242
				c-2.141,1.445-3.722,3.642-3.722,6.185c0,1.265,0.373,2.453,1.072,3.467c1.021,1.482,2.556,2.542,4.32,3.301
				c1.767,0.761,3.818,1.271,5.999,1.65h0.098c2.742,0.467,5.023,1.186,6.371,1.99c0.697,0.425,1.115,0.846,1.396,1.271
				c0.278,0.425,0.416,0.802,0.416,1.352c0,1.061-0.601,2.119-2.001,3.049c-1.392,0.931-3.485,1.567-5.81,1.567
				c-3.303,0.042-6.838-1.736-8.883-3.257c-1.024-0.767-2.558-0.638-3.395,0.291c-0.793,0.932-0.651,2.33,0.373,3.09
				c2.652,1.909,6.88,4.195,11.905,4.234c3.301,0,6.325-0.886,8.605-2.409c2.323-1.528,3.996-3.851,3.996-6.564
				C1003.276,839.047,1002.86,837.78,1002.161,836.765z M925.065,819.797c-7.522,0-13.641,6.65-13.641,14.822
				c0,8.109,6.119,14.71,13.641,14.71c4.625,0,8.874-2.52,11.388-6.746c0.603-1.091,0.298-2.45-0.763-3.259
				c-0.348-0.221-0.75-0.338-1.166-0.338c-0.804,0-1.517,0.43-1.907,1.137c-1.574,2.775-4.467,4.497-7.552,4.497
				c-4.561,0-8.346-3.63-9.023-8.543h20.299c1.267,0,2.26-0.986,2.26-2.244l-0.002-0.3
				C938.022,825.704,932.205,819.797,925.065,819.797z M916.373,831.422c1.232-4.164,4.648-6.913,8.692-6.913
				c3.973,0,7.397,2.81,8.55,6.913H916.373z"/>
		</g>
		<g>
			<path fill="#3E3C3C" d="M592.787,836.105c0,0.879,0.008,1.677,0.026,2.393c0.018,0.715,0.095,1.418,0.233,2.108h-1.397
				l-0.517-1.835h-0.104c-0.345,0.603-0.845,1.104-1.5,1.501c-0.656,0.395-1.423,0.594-2.303,0.594
				c-1.724,0-3.004-0.542-3.841-1.629c-0.836-1.087-1.254-2.785-1.254-5.096c0-2.207,0.521-3.883,1.565-5.03
				c1.043-1.146,2.478-1.72,4.306-1.72c0.638,0,1.142,0.035,1.514,0.103c0.371,0.07,0.771,0.18,1.203,0.336v-5.381h2.069V836.105z
				 M587.562,839.055c0.879,0,1.578-0.23,2.096-0.686c0.517-0.456,0.87-1.151,1.06-2.082v-6.415
				c-0.311-0.241-0.664-0.414-1.06-0.517c-0.397-0.105-0.923-0.156-1.578-0.156c-1.19,0-2.122,0.393-2.794,1.177
				c-0.672,0.785-1.009,2.04-1.009,3.763c0,0.708,0.056,1.363,0.168,1.966c0.111,0.605,0.297,1.122,0.555,1.552
				c0.259,0.432,0.6,0.772,1.023,1.023C586.445,838.93,586.959,839.055,587.562,839.055z"/>
			<path fill="#3E3C3C" d="M606.212,839.52c-0.518,0.414-1.169,0.741-1.953,0.982c-0.785,0.241-1.617,0.362-2.496,0.362
				c-0.983,0-1.837-0.16-2.561-0.478c-0.725-0.32-1.32-0.776-1.785-1.372c-0.465-0.594-0.811-1.306-1.035-2.133
				c-0.224-0.828-0.337-1.758-0.337-2.794c0-2.207,0.492-3.888,1.475-5.043c0.982-1.155,2.388-1.734,4.215-1.734
				c0.587,0,1.172,0.066,1.759,0.195c0.586,0.129,1.113,0.375,1.578,0.737c0.465,0.362,0.844,0.875,1.138,1.539
				c0.292,0.664,0.44,1.538,0.44,2.625c0,0.57-0.052,1.199-0.155,1.889h-8.303c0,0.758,0.077,1.431,0.233,2.018
				c0.155,0.587,0.396,1.081,0.725,1.486c0.327,0.406,0.754,0.717,1.28,0.932c0.526,0.215,1.168,0.324,1.927,0.324
				c0.587,0,1.172-0.105,1.759-0.311c0.586-0.208,1.026-0.449,1.32-0.725L606.212,839.52z M601.763,829.121
				c-1.018,0-1.833,0.267-2.445,0.802c-0.612,0.535-0.978,1.449-1.099,2.742h6.415c0-1.311-0.25-2.229-0.75-2.755
				C603.383,829.384,602.676,829.121,601.763,829.121z"/>
			<path fill="#3E3C3C" d="M615.601,837.037c0-0.519-0.155-0.923-0.465-1.216c-0.311-0.294-0.694-0.539-1.151-0.737
				c-0.457-0.199-0.957-0.388-1.5-0.57c-0.544-0.18-1.044-0.414-1.501-0.697c-0.457-0.285-0.841-0.651-1.151-1.1
				c-0.31-0.449-0.465-1.052-0.465-1.812c0-1.241,0.353-2.15,1.06-2.727s1.69-0.868,2.949-0.868c0.932,0,1.711,0.083,2.341,0.246
				c0.629,0.164,1.176,0.359,1.642,0.583l-0.492,1.707c-0.396-0.19-0.875-0.359-1.435-0.504c-0.56-0.147-1.16-0.221-1.798-0.221
				c-0.759,0-1.315,0.129-1.668,0.388c-0.354,0.259-0.531,0.706-0.531,1.344c0,0.449,0.155,0.798,0.466,1.048
				c0.31,0.25,0.693,0.474,1.15,0.673c0.457,0.197,0.957,0.392,1.501,0.581c0.544,0.189,1.043,0.44,1.5,0.75
				c0.457,0.311,0.841,0.703,1.151,1.177c0.31,0.474,0.465,1.098,0.465,1.874c0,0.554-0.09,1.07-0.271,1.552
				c-0.181,0.484-0.462,0.898-0.841,1.241c-0.38,0.346-0.85,0.618-1.41,0.815c-0.561,0.199-1.22,0.298-1.979,0.298
				c-0.983,0-1.82-0.096-2.509-0.285c-0.691-0.189-1.268-0.414-1.733-0.671l0.621-1.76c0.396,0.224,0.914,0.432,1.552,0.622
				c0.637,0.189,1.284,0.285,1.939,0.285c0.741,0,1.354-0.147,1.836-0.441C615.359,838.321,615.601,837.795,615.601,837.037z"/>
			<path fill="#3E3C3C" d="M620.799,823.69c0-0.397,0.133-0.737,0.401-1.023c0.267-0.285,0.608-0.427,1.022-0.427
				c0.414,0,0.767,0.142,1.06,0.427c0.293,0.285,0.44,0.625,0.44,1.023c0,0.395-0.146,0.723-0.44,0.982
				c-0.293,0.259-0.647,0.388-1.06,0.388c-0.414,0-0.755-0.129-1.022-0.388C620.932,824.413,620.799,824.086,620.799,823.69z
				 M621.239,827.62h2.069v12.933h-2.069V827.62z"/>
			<path fill="#3E3C3C" d="M637.638,841.149c0,1.672-0.444,2.906-1.333,3.698c-0.888,0.793-2.202,1.19-3.944,1.19
				c-1.035,0-1.867-0.064-2.497-0.195c-0.629-0.129-1.168-0.296-1.617-0.504l0.543-1.758c0.396,0.155,0.836,0.302,1.32,0.44
				c0.482,0.138,1.112,0.206,1.888,0.206c0.725,0,1.315-0.064,1.772-0.193c0.456-0.129,0.823-0.346,1.099-0.647
				c0.276-0.302,0.465-0.69,0.569-1.164c0.103-0.474,0.155-1.039,0.155-1.694v-1.241h-0.104c-0.345,0.5-0.784,0.885-1.319,1.151
				c-0.535,0.267-1.233,0.401-2.096,0.401c-1.742,0-3.022-0.543-3.841-1.63c-0.819-1.087-1.229-2.777-1.229-5.07
				c0-2.207,0.526-3.883,1.578-5.03c1.052-1.146,2.603-1.72,4.656-1.72c0.983,0,1.823,0.077,2.522,0.232
				c0.698,0.156,1.322,0.336,1.875,0.544V841.149z M632.438,839.027c0.879,0,1.569-0.219,2.069-0.659s0.854-1.126,1.061-2.056
				v-6.623c-0.691-0.327-1.57-0.491-2.638-0.491c-1.173,0-2.096,0.397-2.768,1.19c-0.672,0.793-1.009,2.036-1.009,3.724
				c0,0.725,0.06,1.389,0.181,1.992c0.12,0.605,0.31,1.122,0.569,1.552c0.258,0.432,0.595,0.767,1.009,1.01
				C631.327,838.907,631.835,839.027,632.438,839.027z"/>
			<path fill="#3E3C3C" d="M649.923,840.553v-7.371c0-1.344-0.194-2.358-0.582-3.038c-0.388-0.682-1.099-1.023-2.134-1.023
				c-0.914,0-1.668,0.247-2.263,0.738c-0.595,0.491-1.013,1.107-1.254,1.848v8.846h-2.069V827.62h1.448l0.388,1.578h0.103
				c0.414-0.552,0.97-1.004,1.669-1.357c0.698-0.353,1.53-0.532,2.496-0.532c0.707,0,1.328,0.083,1.862,0.246
				c0.534,0.164,0.978,0.452,1.333,0.866c0.353,0.414,0.621,0.971,0.802,1.668c0.181,0.699,0.271,1.584,0.271,2.652v7.811H649.923z"
				/>
			<path fill="#3E3C3C" d="M665.21,839.52c-0.518,0.414-1.169,0.741-1.953,0.982c-0.785,0.241-1.617,0.362-2.496,0.362
				c-0.983,0-1.837-0.16-2.561-0.478c-0.725-0.32-1.32-0.776-1.785-1.372c-0.465-0.594-0.811-1.306-1.034-2.133
				c-0.224-0.828-0.337-1.758-0.337-2.794c0-2.207,0.492-3.888,1.475-5.043c0.982-1.155,2.388-1.734,4.215-1.734
				c0.587,0,1.172,0.066,1.759,0.195c0.586,0.129,1.113,0.375,1.578,0.737c0.465,0.362,0.844,0.875,1.138,1.539
				c0.292,0.664,0.44,1.538,0.44,2.625c0,0.57-0.052,1.199-0.155,1.889h-8.303c0,0.758,0.077,1.431,0.233,2.018
				c0.155,0.587,0.396,1.081,0.725,1.486c0.327,0.406,0.754,0.717,1.28,0.932c0.526,0.215,1.168,0.324,1.927,0.324
				c0.587,0,1.172-0.105,1.759-0.311c0.586-0.208,1.026-0.449,1.32-0.725L665.21,839.52z M660.761,829.121
				c-1.018,0-1.833,0.267-2.445,0.802c-0.612,0.535-0.978,1.449-1.099,2.742h6.415c0-1.311-0.25-2.229-0.75-2.755
				C662.382,829.384,661.674,829.121,660.761,829.121z"/>
			<path fill="#3E3C3C" d="M678.841,836.105c0,0.879,0.008,1.677,0.026,2.393c0.017,0.715,0.095,1.418,0.233,2.108h-1.397
				l-0.517-1.835h-0.104c-0.345,0.603-0.845,1.104-1.5,1.501c-0.656,0.395-1.423,0.594-2.303,0.594
				c-1.724,0-3.004-0.542-3.841-1.629c-0.836-1.087-1.254-2.785-1.254-5.096c0-2.207,0.521-3.883,1.565-5.03
				c1.043-1.146,2.478-1.72,4.306-1.72c0.638,0,1.142,0.035,1.514,0.103c0.371,0.07,0.771,0.18,1.203,0.336v-5.381h2.069V836.105z
				 M673.616,839.055c0.879,0,1.578-0.23,2.096-0.686c0.517-0.456,0.87-1.151,1.06-2.082v-6.415
				c-0.311-0.241-0.664-0.414-1.06-0.517c-0.397-0.105-0.923-0.156-1.578-0.156c-1.19,0-2.121,0.393-2.794,1.177
				c-0.672,0.785-1.009,2.04-1.009,3.763c0,0.708,0.056,1.363,0.168,1.966c0.111,0.605,0.297,1.122,0.555,1.552
				c0.259,0.432,0.6,0.772,1.023,1.023C672.5,838.93,673.013,839.055,673.616,839.055z"/>
			<path fill="#3E3C3C" d="M689.731,822.447h2.069v6.441h0.104c0.396-0.498,0.9-0.886,1.513-1.162
				c0.612-0.276,1.28-0.416,2.005-0.416c1.673,0,2.927,0.535,3.764,1.604c0.836,1.07,1.254,2.726,1.254,4.968
				c0,2.259-0.553,3.974-1.655,5.146c-1.104,1.173-2.656,1.76-4.656,1.76c-0.966,0-1.841-0.103-2.625-0.311
				c-0.785-0.206-1.376-0.43-1.772-0.673V822.447z M695.059,829.121c-0.863,0-1.561,0.241-2.095,0.725
				c-0.535,0.482-0.923,1.164-1.164,2.043v6.518c0.327,0.189,0.725,0.333,1.19,0.427c0.465,0.096,0.948,0.142,1.448,0.142
				c1.172,0,2.109-0.414,2.807-1.242c0.698-0.828,1.047-2.12,1.047-3.879c0-0.673-0.061-1.302-0.181-1.889
				c-0.12-0.587-0.31-1.087-0.569-1.501c-0.258-0.414-0.59-0.741-0.995-0.982C696.141,829.243,695.645,829.121,695.059,829.121z"/>
			<path fill="#3E3C3C" d="M707.202,836.002l0.727,2.483h0.13l0.571-2.509l2.518-8.355h2.069l-3.827,11.614
				c-0.294,0.844-0.582,1.664-0.867,2.457c-0.284,0.793-0.6,1.501-0.943,2.121c-0.346,0.622-0.734,1.116-1.164,1.488
				c-0.431,0.37-0.932,0.555-1.501,0.555c-0.621,0-1.129-0.086-1.526-0.257l0.362-1.786c0.223,0.086,0.44,0.131,0.646,0.131
				c0.483,0,0.948-0.256,1.397-0.763c0.448-0.509,0.818-1.385,1.112-2.626l-5.198-12.933h2.379L707.202,836.002z"/>
		</g>
	</g>
	<text transform="matrix(1 0 0 1 534.436 121.9687)"><tspan x="0" y="0" font-family="'QuicksandBold-Regular'" font-size="50.9811px" letter-spacing="1">SOCIAL</tspan><tspan x="199.946" y="0" font-family="'QuicksandLight-Regular'" font-size="50.9811px" letter-spacing="1"> </tspan><tspan x="216.259" y="0" font-family="'Quicksand-Regular'" font-size="50.9811px" letter-spacing="1">ICONS SET </tspan></text>
	<g>
		<line fill="none" stroke="#000000" stroke-width="2" x1="1092.503" y1="102.615" x2="1615.561" y2="102.615"/>
		<line fill="none" stroke="#000000" stroke-width="2" x1="-41.821" y1="102.615" x2="481.237" y2="102.615"/>
	</g>
	<path fill="#6EC6F0" d="M713.88,658.624c0-21.352-17.371-38.723-38.724-38.723c-0.789,0-1.56,0.072-2.337,0.118
		c-15.383,6.102-26.285,21.047-26.285,38.604c0,17.558,10.903,32.506,26.288,38.608c0.776,0.047,1.546,0.118,2.334,0.118
		C696.509,697.349,713.88,679.977,713.88,658.624z"/>
	<path fill="#C8C2C7" d="M1475.353,658.624c0-21.352-17.371-38.723-38.724-38.723c-0.789,0-1.56,0.072-2.338,0.118
		c-15.383,6.102-26.284,21.047-26.284,38.604c0,17.557,10.902,32.504,26.285,38.607c0.777,0.047,1.548,0.118,2.337,0.118
		C1457.982,697.349,1475.353,679.978,1475.353,658.624z"/>
	<g>
		<g>
			<path fill="#6EC6F0" d="M1090.061,464.562c-0.078-21.352-17.514-38.659-38.865-38.582c-0.79,0.003-1.561,0.077-2.339,0.127
				c-15.36,6.158-26.207,21.142-26.143,38.699c0.064,17.557,11.02,32.464,26.425,38.511c0.778,0.044,1.549,0.113,2.339,0.11
				C1072.83,503.349,1090.139,485.915,1090.061,464.562z"/>
			<path fill="#2B2B2B" d="M1051.499,509.215c-24.545,0.089-44.588-19.806-44.677-44.35c-0.089-24.544,19.808-44.583,44.353-44.673
				c24.545-0.089,44.585,19.805,44.674,44.349C1095.938,489.085,1076.044,509.126,1051.499,509.215z M1051.196,425.98
				c-21.354,0.078-38.664,17.512-38.586,38.864c0.078,21.353,17.514,38.661,38.868,38.583c21.352-0.078,38.661-17.512,38.583-38.865
				C1089.983,443.21,1072.547,425.902,1051.196,425.98z"/>
		</g>
		<g>
			<polygon fill="#2B2B2B" points="1027.894,471.358 1041.685,480.357 1051.336,472.309 1037.43,463.725 			"/>
			<polygon fill="#2B2B2B" points="1041.685,447.095 1027.894,456.09 1037.43,463.725 1051.336,455.143 			"/>
			<polygon fill="#2B2B2B" points="1074.777,456.09 1060.986,447.095 1051.336,455.143 1065.241,463.725 			"/>
			<polygon fill="#2B2B2B" points="1051.336,472.309 1060.986,480.357 1074.777,471.358 1065.241,463.725 			"/>
			<polygon fill="#2B2B2B" points="1051.365,474.04 1041.685,482.067 1037.543,479.361 1037.543,482.394 1051.365,490.678 
				1065.185,482.394 1065.185,479.361 1061.043,482.067 			"/>
		</g>
	</g>
	<g>
		<path fill="#2B2B2B" d="M1446.752,648.078h-6.693c0,1.848,1.498,3.346,3.346,3.346
			C1445.254,651.424,1446.752,649.926,1446.752,648.078z"/>
		<path fill="#2B2B2B" d="M1448.194,634.501h-30.295c-0.308,0-0.59,0.086-0.869,0.176c-0.279-0.089-0.561-0.176-0.869-0.176
			c-1.598,0-2.894,1.296-2.894,2.894v11.968c0,6.095,4.957,11.052,11.052,11.052c6.095,0,11.052-4.957,11.052-11.052v-9.073h12.824
			c2.566,0,4.653,2.087,4.653,4.653v11.751c-1.747-0.613-3.581-0.963-5.463-0.963h-0.343c-4.626,0-9.051,1.437-12.793,4.157
			c-0.786,0.572-1.611,1.244-2.463,1.942c-2.295,1.877-4.895,4.005-6.927,4.005h-6.959c-1.598,0-2.894,1.296-2.894,2.894
			c0,1.598,1.296,2.894,2.894,2.894h6.959c4.098,0,7.547-2.822,10.591-5.313c0.763-0.625,1.499-1.228,2.202-1.738
			c2.747-1.997,5.994-3.052,9.39-3.052h0.343c1.939,0,3.805,0.543,5.463,1.524v9.265c0,2.566-2.087,4.653-4.653,4.653l-4.567-0.001
			l0.001-3.882h3.264c1.598,0,2.894-1.296,2.894-2.894s-1.296-2.894-2.894-2.894h-3.264c-3.192,0-5.789,2.597-5.789,5.789v3.88
			c0,3.192,2.597,5.789,5.789,5.789h4.566c5.757,0,10.441-4.684,10.441-10.441v-27.366
			C1458.635,639.185,1453.951,634.501,1448.194,634.501z M1429.582,649.362c0,2.902-2.361,5.264-5.264,5.264
			s-5.264-2.361-5.264-5.264v-9.073h10.528V649.362z"/>
	</g>
	<g>
		<g>
			<path fill="#F9E977" d="M718.931,464.703c0-21.352-17.371-38.723-38.724-38.723c-0.789,0-1.56,0.072-2.338,0.118
				c-15.383,6.102-26.284,21.047-26.284,38.604c0,17.557,10.902,32.504,26.285,38.607c0.777,0.047,1.548,0.118,2.337,0.118
				C701.56,503.427,718.931,486.056,718.931,464.703z"/>
			<g>
				<path fill="#2B2B2B" d="M680.206,509.215c-24.544,0-44.512-19.968-44.512-44.512c0-24.544,19.968-44.511,44.512-44.511
					s44.512,19.967,44.512,44.511C724.719,489.247,704.75,509.215,680.206,509.215z M680.206,425.98
					c-21.353,0-38.724,17.371-38.724,38.723c0,21.353,17.371,38.724,38.724,38.724c21.353,0,38.724-17.371,38.724-38.724
					C718.931,443.351,701.56,425.98,680.206,425.98z"/>
			</g>
		</g>
		<path fill="#2B2B2B" d="M702.203,477.507l-4.651-4.812c-1.558-1.611-2.423-3.715-2.499-5.945h2.007
			c1.598,0,2.894-1.296,2.894-2.894s-1.296-2.894-2.894-2.894h-2.036v-5.788c0-8.171-6.647-14.818-14.818-14.818
			c-8.171,0-14.818,6.647-14.818,14.818v5.788h-2.036c-1.598,0-2.894,1.296-2.894,2.894s1.296,2.894,2.894,2.894h2.007
			c-0.076,2.23-0.94,4.334-2.5,5.946l-4.649,4.81c-0.762,0.789-1.012,1.939-0.647,2.973c0.365,1.034,1.282,1.773,2.37,1.909
			l4.239,0.53c1.682,0.211,3.281,0.743,4.752,1.584c2.072,1.184,4.321,1.949,6.688,2.274l4.201,0.575
			c0.128,0.018,0.257,0.025,0.384,0.026c0.002,0,0.003,0.001,0.005,0.001l0.004,0c0.001,0,0.003,0,0.004,0
			c0,0,0.003-0.001,0.005-0.001c0.127-0.001,0.255-0.008,0.384-0.026l4.203-0.575c2.364-0.325,4.615-1.09,6.69-2.275
			c1.47-0.841,3.066-1.372,4.751-1.583l4.238-0.53c1.088-0.136,2.005-0.875,2.37-1.909
			C703.214,479.446,702.964,478.295,702.203,477.507z M688.62,479.477c-1.429,0.815-2.977,1.342-4.605,1.566l-3.808,0.521
			l-3.807-0.521c-1.629-0.223-3.178-0.75-4.602-1.564c-1.708-0.976-3.537-1.667-5.45-2.062l0.674-0.697
			c2.681-2.772,4.156-6.421,4.156-10.276v-11.269c0-4.978,4.051-9.03,9.03-9.03s9.03,4.051,9.03,9.03v11.269
			c0,3.855,1.475,7.504,4.154,10.275l0.675,0.698C692.151,477.811,690.324,478.502,688.62,479.477z"/>
	</g>
	<path fill="#2B2B2B" d="M702.651,636.412c-0.633-0.551-1.471-0.798-2.302-0.681l-41.093,5.788c-1.427,0.201-2.49,1.423-2.49,2.866
		v28.481c0,1.443,1.063,2.665,2.49,2.866l41.093,5.788c0.136,0.018,0.27,0.028,0.404,0.028c0.694,0,1.368-0.249,1.898-0.709
		c0.633-0.55,0.996-1.347,0.996-2.185v-40.057C703.647,637.759,703.284,636.962,702.651,636.412z M697.859,655.732h-17.693V644.42
		l17.693-2.492V655.732z M674.377,645.235v10.497h-11.823V646.9L674.377,645.235z M662.554,661.52h11.823v10.496l-11.823-1.665
		V661.52z M680.165,672.831V661.52h17.693v13.803L680.165,672.831z"/>
	<g>
		<g>
			<path fill="#E85F63" d="M536.705,658.624c0-21.352-17.371-38.723-38.724-38.723c-0.789,0-1.559,0.072-2.337,0.118
				c-15.384,6.102-26.285,21.047-26.285,38.604c0,17.558,10.903,32.506,26.288,38.608c0.776,0.047,1.546,0.118,2.334,0.118
				C519.334,697.349,536.705,679.977,536.705,658.624z"/>
			<g>
				<path fill="#2B2B2B" d="M497.981,703.138c-24.544,0-44.512-19.968-44.512-44.514c0-24.544,19.968-44.511,44.512-44.511
					s44.512,19.967,44.512,44.511C542.493,683.169,522.525,703.138,497.981,703.138z M497.981,619.901
					c-21.353,0-38.724,17.371-38.724,38.723c0,21.353,17.371,38.726,38.724,38.726c21.353,0,38.724-17.373,38.724-38.726
					C536.705,637.272,519.334,619.901,497.981,619.901z"/>
			</g>
		</g>
		<g>
			<path fill="#2B2B2B" d="M473.372,653.141c-1.598,0-2.894,1.296-2.894,2.894v11.737c0,1.598,1.296,2.894,2.894,2.894
				s2.894-1.296,2.894-2.894v-11.737C476.266,654.437,474.97,653.141,473.372,653.141z"/>
			<path fill="#2B2B2B" d="M522.59,653.141c-1.598,0-2.894,1.296-2.894,2.894v11.737c0,1.598,1.296,2.894,2.894,2.894
				s2.894-1.296,2.894-2.894v-11.737C525.484,654.437,524.188,653.141,522.59,653.141z"/>
			<path fill="#2B2B2B" d="M497.981,635.111c-10.092,0-18.304,6.625-18.304,14.768v17.011c0,5.168,4.021,9.37,9.092,9.755v6.142
				c0,1.598,1.296,2.894,2.894,2.894s2.894-1.296,2.894-2.894v-6.068h6.846v6.068c0,1.598,1.296,2.894,2.894,2.894
				s2.894-1.296,2.894-2.894v-6.142c5.071-0.385,9.093-4.587,9.093-9.755v-17.011C516.285,641.736,508.073,635.111,497.981,635.111z
				 M497.981,640.899c5.629,0,10.346,2.698,11.914,6.373h-23.829C487.635,643.597,492.351,640.899,497.981,640.899z
				 M506.454,670.932h-16.947c-2.228,0-4.041-1.813-4.041-4.041v-13.915c0.143,0.022,0.272,0.085,0.421,0.085h24.61v13.83
				C510.497,669.119,508.684,670.932,506.454,670.932z"/>
		</g>
	</g>
	<g>
		<path fill-rule="evenodd" clip-rule="evenodd" fill="#A8D381" d="M142.867,303.336c0.242-0.064,0.489-0.095,0.735-0.095
			c0.48,0,0.957,0.12,1.386,0.353c5.672,3.095,12.099,4.731,18.584,4.732c12.382,0,24.134-5.993,31.455-16.03
			c7.439-10.2,9.408-23.203,5.406-35.678c-0.543-1.691-1.241-3.333-2.074-4.882l-0.001-0.001
			c-6.351-11.809-17.332-19.375-29.967-20.917c-17.099,5.231-29.596,21.105-29.603,39.897c-0.003,7.365,1.921,14.554,5.578,20.891
			l-3.344,12.213L142.867,303.336z"/>
		<g>
			<path fill="#2B2B2B" d="M184.482,275.825l-0.533-0.26c-0.061-0.031-6.147-3.057-7.439-3.529c-2.491-0.91-4.426-0.356-5.748,1.635
				c-0.425,0.637-1.61,2.076-2.474,3.095c-0.072-0.033-0.147-0.065-0.226-0.099c-1.378-0.598-3.943-1.71-6.931-4.375
				c-2.19-1.954-3.865-4.342-4.728-5.702c0.235-0.266,0.478-0.56,0.721-0.855l0.496-0.596c0.68-0.796,0.992-1.431,1.294-2.048
				l0.141-0.285c0.482-0.968,0.858-2.52-0.079-4.395c-0.208-0.439-1.122-2.672-1.963-4.718l-1.183-2.871
				c-1-2.404-2.561-3.572-4.844-3.572c-0.013,0-0.025,0-0.037,0c-0.65-0.031-1.396-0.04-2.142-0.04
				c-0.861,0-3.064,0.219-5.101,2.443c-1.266,1.352-4.231,4.516-4.231,10.468c0,5.494,3.383,10.594,4.966,12.715
				c3.113,4.465,9.705,12.547,18.88,16.509c2.51,1.084,4.475,1.747,6.223,2.301c1.57,0.499,3.195,0.748,4.918,0.748
				c0.957,0,1.943-0.078,2.965-0.229c2.616-0.391,7.974-3.016,9.345-6.855c0.668-1.871,1.496-5.542,0.365-7.429
				C186.48,276.792,185.464,276.3,184.482,275.825z M181.32,283.365c-0.376,1.054-3.352,2.866-4.748,3.073
				c-1.256,0.188-3.17,0.36-5.275-0.309c-1.607-0.51-3.407-1.116-5.681-2.097c-7.861-3.394-13.666-10.546-16.427-14.507
				l-0.247-0.348c-0.863-1.149-3.678-5.2-3.678-9.057c0-3.664,1.735-5.515,2.667-6.51l0.229-0.247
				c0.321-0.35,0.618-0.366,0.649-0.366c0.577,0,1.154,0.004,1.669,0.025c0.004,0.007,0.007,0.016,0.01,0.023l1.174,2.847
				c1.153,2.811,1.708,4.15,1.99,4.786c-0.182,0.37-0.252,0.489-0.427,0.695l-0.574,0.688c-0.294,0.358-0.581,0.718-0.837,0.972
				c-2.2,2.187-1.713,4.275-0.919,5.64c0.818,1.403,3.075,4.985,6.384,7.936c3.683,3.285,6.923,4.691,8.48,5.367
				c0.228,0.098,0.413,0.175,0.547,0.243c2.969,1.487,4.87,0.048,5.737-0.944c0.021-0.024,1.817-2.09,2.962-3.599
				c1.395,0.626,4.944,2.357,6.353,3.062l0.519,0.254C181.816,281.568,181.665,282.397,181.32,283.365z"/>
			<path fill="#2B2B2B" d="M205.944,254.85c-0.651-2.026-1.488-3.998-2.488-5.856c-8.171-15.192-23.074-24.266-39.868-24.271
				c-24.629,0-44.674,20.042-44.682,44.676c-0.004,7.436,1.848,14.763,5.367,21.27l-3.711,13.559
				c-0.674,2.46-0.006,5.012,1.789,6.825c1.793,1.813,4.333,2.512,6.807,1.864l14.089-3.697c6.263,3.205,13.265,4.894,20.341,4.895
				c14.207,0,27.708-6.882,36.114-18.408C208.243,283.998,210.519,269.106,205.944,254.85z M195.027,292.297
				c-7.321,10.037-19.074,16.03-31.455,16.03c-6.485-0.001-12.911-1.638-18.584-4.732c-0.43-0.233-0.906-0.353-1.386-0.353
				c-0.246,0-0.493,0.031-0.735,0.095l-15.177,3.982c-0.623,0.164-1.033-0.141-1.224-0.335c-0.192-0.195-0.49-0.612-0.322-1.227
				l4.024-14.7c0.205-0.746,0.102-1.542-0.284-2.211c-3.4-5.89-5.195-12.612-5.19-19.443c0.008-21.445,17.456-38.891,38.893-38.891
				c14.628,0.006,27.626,7.94,34.771,21.225l0.001,0.001c0.834,1.549,1.532,3.191,2.074,4.882
				C204.435,269.094,202.465,282.098,195.027,292.297z"/>
		</g>
	</g>
	<g>
		<path fill="#E85F63" d="M360.936,269.417c0-21.352-17.371-38.722-38.724-38.722c-0.789,0-1.561,0.072-2.338,0.119
			c-15.383,6.102-26.284,21.047-26.284,38.604c0,17.557,10.902,32.504,26.285,38.607c0.777,0.047,1.548,0.118,2.337,0.118
			C343.565,308.143,360.936,290.771,360.936,269.417z"/>
		<path fill="#2B2B2B" d="M339.019,253.442c-2.339-3.762-6.103-6.391-10.6-7.407c-9.469-2.131-18.748,2.399-22.554,11.033
			c-3.321,7.535,0.882,13.97,3.568,16.32c1.207,1.054,3.033,0.931,4.084-0.271c1.053-1.204,0.931-3.033-0.271-4.084
			c-0.047-0.041-4.539-4.06-2.084-9.63c2.715-6.164,9.134-9.278,15.983-7.721c3.017,0.681,5.423,2.347,6.959,4.817
			c1.686,2.71,2.137,6.189,1.27,9.796c-1.19,4.942-4.728,8.514-8.067,8.204c-3.497-0.359-5.57-2.882-5.547-4.542l2.669-11.041
			c0.374-1.553-0.579-3.117-2.134-3.493c-1.549-0.37-3.116,0.578-3.493,2.134l-8.477,35.07c-0.374,1.553,0.579,3.117,2.134,3.493
			c0.229,0.055,0.456,0.081,0.683,0.081c1.306,0,2.49-0.889,2.811-2.214l3.993-16.517c1.849,1.477,4.182,2.522,6.772,2.788
			c0.355,0.037,0.707,0.055,1.057,0.055c5.96-0.001,11.421-5.148,13.228-12.663C342.234,262.524,341.53,257.478,339.019,253.442z"/>
		<g>
			<path fill="#2B2B2B" d="M322.212,313.931c-24.544,0-44.512-19.968-44.512-44.514c0-24.543,19.968-44.51,44.512-44.51
				s44.512,19.967,44.512,44.51C366.724,293.963,346.756,313.931,322.212,313.931z M322.212,230.696
				c-21.353,0-38.724,17.37-38.724,38.722c0,21.353,17.371,38.726,38.724,38.726s38.724-17.373,38.724-38.726
				C360.936,248.065,343.565,230.696,322.212,230.696z"/>
		</g>
	</g>
	<g>
		<path fill="#899BCF" d="M471.935,302.181c0,0.94,0.265,1.812,0.693,2.585h57.734c1.502,0,2.723-1.159,2.723-2.585v-65.522
			c0-1.426-1.221-2.586-2.723-2.586h-57.735c-0.428,0.773-0.693,1.645-0.693,2.585V302.181z M512.802,265.556v0.119h-0.077
			C512.75,265.636,512.778,265.596,512.802,265.556z M500.849,265.556v0.119h-0.077
			C500.797,265.636,500.825,265.596,500.849,265.556z"/>
		<g>
			<path fill="#2B2B2B" d="M485.416,263.431c-1.598,0-2.894,1.296-2.894,2.894v22.251c0,1.598,1.296,2.894,2.894,2.894
				s2.894-1.296,2.894-2.894v-22.251C488.31,264.727,487.015,263.431,485.416,263.431z"/>
			<path fill="#2B2B2B" d="M507.069,264.753c-2.138,0-4.369,0.655-6.326,1.8v-0.228c0-1.598-1.296-2.894-2.894-2.894
				s-2.894,1.296-2.894,2.894v22.251c0,1.598,1.296,2.894,2.894,2.894s2.894-1.296,2.894-2.894V275.69
				c0-2.551,3.192-5.149,6.326-5.149c0.975,0,3.94,0,3.94,4.32v13.715c0,1.598,1.296,2.894,2.894,2.894s2.894-1.296,2.894-2.894
				v-13.715C516.797,268.721,512.979,264.753,507.069,264.753z"/>
			<ellipse fill="#2B2B2B" cx="485.417" cy="258.121" rx="3.025" ry="3.042"/>
		</g>
		<g>
			<g>
				<path fill="#2B2B2B" d="M530.363,310.554h-64.766c-4.691,0-8.508-3.756-8.508-8.373v-65.522c0-4.618,3.817-8.374,8.508-8.374
					h64.766c4.693,0,8.511,3.756,8.511,8.374v65.522C538.874,306.798,535.055,310.554,530.363,310.554z M465.596,234.073
					c-1.499,0-2.72,1.16-2.72,2.586v65.522c0,1.426,1.221,2.585,2.72,2.585h64.766c1.502,0,2.723-1.159,2.723-2.585v-65.522
					c0-1.426-1.221-2.586-2.723-2.586H465.596z"/>
			</g>
		</g>
	</g>
	<g>
		<path fill="#6EC6F0" d="M687.223,305.183c0.174-0.033,0.349-0.048,0.524-0.048c0.475,0,0.945,0.117,1.368,0.343
			c2.838,1.522,6.044,2.326,9.276,2.326c10.819,0,19.621-8.802,19.621-19.621c0-3.059-0.685-5.99-2.036-8.71
			c-0.293-0.589-0.376-1.26-0.236-1.903c0.55-2.525,0.83-5.122,0.83-7.717c0-19.81-16.118-35.926-35.929-35.926
			c-2.049,0-4.118,0.177-6.151,0.526c-0.702,0.117-1.429-0.023-2.033-0.406c-3.084-1.945-6.641-2.976-10.292-3.002
			c-6.868,3.851-11.518,11.18-11.518,19.616c0,4.154,1.131,8.043,3.094,11.387c-0.516,2.52-0.785,5.133-0.785,7.806
			c0,16.065,9.771,29.8,23.682,35.694c1.316,0.147,2.649,0.237,4.003,0.237C682.843,305.783,685.057,305.581,687.223,305.183z"/>
		<g>
			<path fill="#2B2B2B" d="M680.207,290.08c-9.232,0-14.706-5.621-16.59-10.436c-0.582-1.488,0.151-3.167,1.641-3.749
				c1.491-0.582,3.167,0.151,3.749,1.641c1.279,3.266,4.892,6.756,11.2,6.756c5.962,0,10.118-2.907,10.118-5.515
				c0-2.884-3.456-4.608-9.425-6.613c-0.992-0.332-2.063-0.633-3.151-0.938c-5.26-1.479-12.462-3.506-12.462-10.573
				c0-5.463,3.705-11.302,14.106-11.302c11.812,0,15.558,7.895,15.712,8.23c0.664,1.454,0.024,3.171-1.429,3.837
				c-1.441,0.66-3.144,0.034-3.82-1.395c-0.131-0.26-2.568-4.884-10.464-4.884c-6.875,0-8.318,2.999-8.318,5.514
				c0,2.496,3.263,3.601,8.241,5.001c1.183,0.332,2.349,0.661,3.427,1.024c5.001,1.679,13.371,4.489,13.371,12.099
				C696.113,285.114,689.127,290.08,680.207,290.08z"/>
		</g>
		<g>
			<path fill="#2B2B2B" d="M698.391,313.592c-3.841,0-7.658-0.879-11.101-2.549c-2.196,0.35-4.429,0.529-6.65,0.529
				c-23.002,0-41.717-18.715-41.717-41.719c0-2.459,0.215-4.915,0.64-7.316c-1.933-3.651-2.949-7.734-2.949-11.877
				c0-14.012,11.399-25.413,25.41-25.413c4.423,0,8.741,1.147,12.562,3.329c2.008-0.291,4.039-0.438,6.054-0.438
				c23.002,0,41.717,18.714,41.717,41.715c0,2.675-0.256,5.351-0.762,7.97c1.464,3.264,2.204,6.745,2.204,10.361
				C723.8,302.194,712.402,313.592,698.391,313.592z M687.747,305.135c0.475,0,0.945,0.117,1.368,0.343
				c2.838,1.522,6.044,2.326,9.276,2.326c10.819,0,19.621-8.802,19.621-19.621c0-3.059-0.685-5.99-2.036-8.71
				c-0.293-0.589-0.376-1.26-0.236-1.903c0.55-2.525,0.83-5.122,0.83-7.717c0-19.81-16.118-35.926-35.929-35.926
				c-2.049,0-4.118,0.177-6.151,0.526c-0.702,0.117-1.429-0.023-2.033-0.406c-3.123-1.97-6.731-3.011-10.431-3.011
				c-10.82,0-19.622,8.804-19.622,19.625c0,3.486,0.933,6.917,2.696,9.921c0.362,0.616,0.483,1.345,0.339,2.046
				c-0.482,2.357-0.726,4.788-0.726,7.225c0,19.813,16.118,35.931,35.929,35.931c2.203,0,4.417-0.202,6.584-0.601
				C687.397,305.15,687.572,305.135,687.747,305.135z"/>
		</g>
	</g>
	<g>
		<path fill="#E85F63" d="M836.2,302.181c0,0.94,0.265,1.812,0.693,2.585h57.212c1.504,0,2.724-1.159,2.724-2.585v-65.522
			c0-1.426-1.221-2.586-2.724-2.586h-57.212c-0.428,0.773-0.693,1.645-0.693,2.585V302.181z M877.067,265.556v0.119h-0.077
			C877.015,265.636,877.043,265.596,877.067,265.556z M870.568,265.556v0.119h-0.077
			C870.516,265.636,870.544,265.596,870.568,265.556z M858.615,265.556v0.119h-0.077
			C858.564,265.636,858.591,265.596,858.615,265.556z"/>
		<g>
			<path fill="#2B2B2B" d="M862.506,273.748c-1.763-1.596-3.547-3.227-4.48-4.74c5.453-2.003,8.632-6.813,8.632-13.593
				c0-3.721-1.209-6.608-3.084-8.743l5.042-0.693c1.586-0.218,2.691-1.677,2.473-3.261c-0.215-1.583-1.682-2.7-3.259-2.473
				l-13.218,1.817c-0.088,0.012-0.156,0.064-0.241,0.084c-0.603-0.066-1.207-0.111-1.808-0.111c-6.794,0-14.018,4.73-14.018,13.496
				c0,3.962,1.913,8.168,4.997,10.978c2.416,2.204,5.422,3.395,8.593,3.498c0.602,1.677,1.631,3.194,2.918,4.599
				c-5.248,0.468-12.811,1.853-16.92,5.89c-1.978,1.943-3.024,4.382-3.024,7.05c0,4.39,2.815,8.043,7.724,10.02
				c2.586,1.041,5.734,1.597,8.931,1.597c5.31,0,10.762-1.53,14.009-4.908c2.925-3.042,4.296-6.008,4.191-9.068
				C869.797,280.35,865.922,276.843,862.506,273.748z M844.333,255.531c0-5.655,4.92-7.708,8.23-7.708
				c1.388,0,8.306,0.366,8.306,7.593c0,5.381-2.549,8.346-7.577,8.811c-2.756,0.244-4.703-0.945-5.85-1.994
				C845.554,260.511,844.333,257.881,844.333,255.531z M861.601,290.243c-3.081,3.201-11.149,4.149-16.607,1.954
				c-2.719-1.097-4.098-2.661-4.098-4.652c0-1.125,0.41-2.053,1.292-2.919c3.75-3.691,13.735-4.464,17.864-4.464
				c0.17,0,0.328,0.001,0.478,0.004c0.102,0.003,0.24-0.004,0.362-0.017c1.795,1.761,3.227,3.533,3.287,5.238
				C864.227,286.78,863.359,288.414,861.601,290.243z"/>
			<path fill="#2B2B2B" d="M888.707,264.955h-4.943v-6.53c0-1.598-1.294-2.894-2.894-2.894s-2.894,1.296-2.894,2.894v6.53h-4.943
				c-1.6,0-2.894,1.296-2.894,2.894s1.294,2.894,2.894,2.894h4.943v6.53c0,1.598,1.294,2.894,2.894,2.894s2.894-1.296,2.894-2.894
				v-6.53h4.943c1.6,0,2.894-1.296,2.894-2.894S890.307,264.955,888.707,264.955z"/>
		</g>
		<g>
			<g>
				<path fill="#2B2B2B" d="M894.105,310.554H829.34c-4.691,0-8.51-3.756-8.51-8.373v-65.522c0-4.618,3.818-8.374,8.51-8.374h64.765
					c4.694,0,8.512,3.756,8.512,8.374v65.522C902.618,306.798,898.799,310.554,894.105,310.554z M829.34,234.073
					c-1.501,0-2.722,1.16-2.722,2.586v65.522c0,1.426,1.221,2.585,2.722,2.585h64.765c1.504,0,2.724-1.159,2.724-2.585v-65.522
					c0-1.426-1.221-2.586-2.724-2.586H829.34z"/>
			</g>
		</g>
	</g>
	<g>
		<path fill="#78ADDD" d="M1090.061,269.417c0-21.352-17.373-38.722-38.724-38.722c-0.79,0-1.561,0.072-2.339,0.119
			c-15.383,6.102-26.284,21.047-26.284,38.604c0,17.557,10.902,32.504,26.285,38.607c0.777,0.047,1.549,0.119,2.338,0.119
			C1072.689,308.143,1090.061,290.771,1090.061,269.417z"/>
		<path fill="#2B2B2B" d="M1060.03,262.259h-7.715v-8.914c0-3.083,2.609-3.492,3.677-3.524h4.4c1.6,0,2.894-1.296,2.894-2.894
			c0-1.598-1.294-2.894-2.894-2.894h-4.426c-3.796,0.034-9.439,2.542-9.439,9.312v8.914h-4.824c-1.6,0-2.894,1.296-2.894,2.894
			s1.294,2.894,2.894,2.894h4.824v24.038c0,1.598,1.294,2.894,2.894,2.894s2.894-1.296,2.894-2.894v-24.038h7.715
			c1.6,0,2.894-1.296,2.894-2.894S1061.63,262.259,1060.03,262.259z"/>
		<g>
			<path fill="#2B2B2B" d="M1051.337,313.931c-24.545,0-44.515-19.968-44.515-44.514c0-24.543,19.97-44.51,44.515-44.51
				s44.512,19.967,44.512,44.51C1095.849,293.963,1075.882,313.931,1051.337,313.931z M1051.337,230.696
				c-21.355,0-38.727,17.37-38.727,38.722c0,21.353,17.373,38.726,38.727,38.726c21.352,0,38.724-17.373,38.724-38.726
				C1090.061,248.065,1072.689,230.696,1051.337,230.696z"/>
		</g>
	</g>
	<g>
		<path fill="#F38BB9" d="M1288.694,269.417c0-21.352-17.37-38.722-38.722-38.722c-0.79,0-1.562,0.072-2.34,0.119
			c-15.382,6.103-26.284,21.047-26.284,38.604c0,17.557,10.902,32.504,26.285,38.607c0.778,0.047,1.549,0.119,2.339,0.119
			C1271.325,308.143,1288.694,290.771,1288.694,269.417z"/>
		<g>
			<path fill="#2B2B2B" d="M1249.971,257.304c-6.716,0-12.18,5.464-12.18,12.18c0,6.716,5.464,12.18,12.18,12.18
				s12.18-5.464,12.18-12.18C1262.151,262.767,1256.687,257.304,1249.971,257.304z M1249.971,277.306
				c-4.313,0-7.822-3.509-7.822-7.822c0-4.313,3.509-7.822,7.822-7.822s7.822,3.509,7.822,7.822
				C1257.793,273.796,1254.284,277.306,1249.971,277.306z"/>
			<circle fill="#2B2B2B" cx="1262.609" cy="257.006" r="2.766"/>
			<path fill="#2B2B2B" d="M1269.825,249.821c-2.516-2.535-5.982-3.875-10.024-3.875h-19.661c-8.279,0-13.841,5.563-13.841,13.841
				v19.552c0,4.139,1.378,7.664,3.985,10.195c2.531,2.457,5.977,3.756,9.965,3.756h19.443c4.064,0,7.539-1.296,10.049-3.747
				c2.552-2.492,3.901-5.983,3.901-10.095v-19.661C1273.642,255.783,1272.322,252.337,1269.825,249.821z M1269.285,279.448
				c0,2.911-0.895,5.323-2.588,6.977c-1.679,1.64-4.101,2.506-7.004,2.506h-19.443c-2.832,0-5.228-0.873-6.93-2.525
				c-1.742-1.691-2.663-4.135-2.663-7.068v-19.552c0-2.89,0.882-5.296,2.552-6.956c1.662-1.653,4.059-2.527,6.932-2.527h19.661
				c2.855,0,5.252,0.894,6.931,2.587c1.67,1.682,2.552,4.067,2.552,6.897V279.448z"/>
		</g>
		<path fill="#2B2B2B" d="M1249.973,313.931c-24.545,0-44.515-19.968-44.515-44.514c0-24.543,19.97-44.51,44.515-44.51
			c24.543,0,44.51,19.967,44.51,44.51C1294.482,293.963,1274.516,313.931,1249.973,313.931z M1249.973,230.696
			c-21.355,0-38.727,17.37-38.727,38.722c0,21.353,17.373,38.726,38.727,38.726c21.352,0,38.722-17.373,38.722-38.726
			C1288.694,248.065,1271.325,230.696,1249.973,230.696z"/>
	</g>
	<g>
		<path fill="#5FBAA7" d="M1474.677,269.417c0-21.352-17.373-38.722-38.724-38.722c-0.79,0-1.561,0.072-2.339,0.119
			c-15.383,6.102-26.284,21.047-26.284,38.604c0,17.557,10.902,32.504,26.285,38.607c0.778,0.047,1.549,0.118,2.338,0.118
			C1457.304,308.143,1474.677,290.771,1474.677,269.417z"/>
		<path fill="#2B2B2B" d="M1435.951,243.904c-10.841,0-19.629,8.788-19.629,19.629c0,14.595,15.697,30.634,19.629,30.634
			c3.932,0,19.629-16.038,19.629-30.634C1455.58,252.692,1446.792,243.904,1435.951,243.904z M1435.951,275.507
			c-6.578,0-11.91-5.332-11.91-11.91c0-2.607,0.841-5.017,2.261-6.978c0.153,2.519,2.238,4.516,4.795,4.516
			c2.657,0,4.81-2.154,4.81-4.81c0-1.898-1.102-3.534-2.698-4.317c0.88-0.208,1.797-0.32,2.741-0.32
			c6.577,0,11.909,5.332,11.909,11.909S1442.529,275.507,1435.951,275.507z"/>
		<g>
			<path fill="#2B2B2B" d="M1435.953,313.931c-24.545,0-44.515-19.968-44.515-44.514c0-24.543,19.97-44.51,44.515-44.51
				s44.512,19.967,44.512,44.51C1480.465,293.963,1460.498,313.931,1435.953,313.931z M1435.953,230.696
				c-21.355,0-38.727,17.37-38.727,38.722c0,21.353,17.373,38.726,38.727,38.726c21.352,0,38.724-17.373,38.724-38.726
				C1474.677,248.065,1457.304,230.696,1435.953,230.696z"/>
		</g>
	</g>
	<g>
		<path fill="#2B2B2B" d="M1435.951,703.137c-24.544,0-44.512-19.968-44.512-44.512s19.968-44.511,44.512-44.511
			s44.512,19.967,44.512,44.511S1460.495,703.137,1435.951,703.137z M1435.951,619.901c-21.353,0-38.724,17.371-38.724,38.723
			c0,21.353,17.371,38.724,38.724,38.724s38.724-17.371,38.724-38.724C1474.675,637.273,1457.304,619.901,1435.951,619.901z"/>
	</g>
	<g>
		<path fill="#FCB856" d="M360.936,658.624c0-21.352-17.371-38.723-38.724-38.723c-0.789,0-1.56,0.072-2.338,0.118
			c-15.383,6.102-26.284,21.047-26.284,38.604c0,17.557,10.902,32.504,26.285,38.607c0.777,0.047,1.548,0.118,2.337,0.118
			C343.565,697.349,360.936,679.978,360.936,658.624z"/>
		<path fill="#2B2B2B" d="M336.738,654.289h-1.844v-2.794c0-7.17-5.833-13.003-13.005-13.003h-5.529
			c-7.17,0-13.003,5.833-13.003,13.003v5.688v5.686c0,7.17,5.833,13.003,13.003,13.003h12.954c7.17,0,13.003-5.833,13.003-13.003
			v-3.001C342.317,656.792,339.815,654.289,336.738,654.289z M316.36,644.28h5.529c3.979,0,7.217,3.237,7.217,7.215v2.794h-19.961
			v-2.794C309.145,647.518,312.382,644.28,316.36,644.28z M336.529,662.869c0,3.978-3.237,7.215-7.215,7.215H316.36
			c-3.978,0-7.215-3.237-7.215-7.215v-2.792h27.384V662.869z"/>
		<path fill="#2B2B2B" d="M322.212,703.137c-24.544,0-44.512-19.968-44.512-44.512s19.968-44.511,44.512-44.511
			c24.544,0,44.512,19.967,44.512,44.511S346.756,703.137,322.212,703.137z M322.212,619.901c-21.353,0-38.724,17.371-38.724,38.723
			c0,21.353,17.371,38.724,38.724,38.724c21.353,0,38.724-17.371,38.724-38.724C360.936,637.273,343.565,619.901,322.212,619.901z"
			/>
	</g>
	<g>
		<path fill="#78ADDD" d="M536.706,464.703c0-21.352-17.371-38.723-38.724-38.723c-0.789,0-1.56,0.072-2.338,0.118
			c-15.383,6.102-26.284,21.047-26.284,38.604c0,17.557,10.902,32.504,26.285,38.607c0.777,0.047,1.548,0.118,2.337,0.118
			C519.335,503.427,536.706,486.056,536.706,464.703z"/>
		<path fill="#2B2B2B" d="M519.668,479.258c-2.958-5.876-7.018-9.904-12.23-12.216c5.588-3.512,9.955-9.579,12.413-17.646
			c0.466-1.529-0.396-3.146-1.925-3.612c-1.528-0.473-3.147,0.393-3.612,1.925c-1.462,4.796-5.919,15.558-16.686,16.86v-15.79
			c0-1.598-1.296-2.894-2.894-2.894h-4.142c-1.598,0-2.894,1.296-2.894,2.894s1.296,2.894,2.894,2.894h1.248v26.07
			c-8.511-2.195-15.687-13.845-16.942-28.317c-0.137-1.593-1.539-2.787-3.133-2.633c-1.593,0.137-2.771,1.54-2.633,3.133
			c1.677,19.369,12.684,33.976,25.601,33.976c1.598,0,2.894-1.296,2.894-2.894v-10.405c7.876,0.558,13.291,4.148,16.87,11.257
			c0.509,1.01,1.528,1.593,2.587,1.593c0.437,0,0.88-0.099,1.299-0.309C519.812,482.426,520.388,480.686,519.668,479.258z"/>
		<g>
			<path fill="#2B2B2B" d="M497.982,509.215c-24.545,0-44.514-19.968-44.514-44.512c0-24.544,19.968-44.511,44.514-44.511
				c24.544,0,44.512,19.967,44.512,44.511C542.494,489.247,522.526,509.215,497.982,509.215z M497.982,425.98
				c-21.353,0-38.726,17.371-38.726,38.723c0,21.353,17.373,38.724,38.726,38.724c21.353,0,38.724-17.371,38.724-38.724
				C536.706,443.351,519.335,425.98,497.982,425.98z"/>
		</g>
	</g>
	<g>
		<path fill="#899BCF" d="M900.449,464.703c0-21.352-17.37-38.723-38.722-38.723c-0.79,0-1.561,0.072-2.339,0.119
			c-15.383,6.102-26.284,21.047-26.284,38.604c0,17.557,10.902,32.503,26.285,38.607c0.778,0.047,1.549,0.119,2.339,0.119
			C883.079,503.427,900.449,486.056,900.449,464.703z"/>
		<path fill="#2B2B2B" d="M878.192,483.794c-0.774-1.399-2.541-1.908-3.931-1.136c-2.679,1.477-5.104,2.135-7.86,2.135
			c-1.037,0-5.228-1.029-5.228-5.784v-21.01h11.862c1.6,0,2.894-1.296,2.894-2.894s-1.294-2.894-2.894-2.894h-11.862v-11.942
			c0-1.598-1.294-2.894-2.894-2.894c-1.6,0-2.894,1.296-2.894,2.894v11.942h-6.288c-1.6,0-2.894,1.296-2.894,2.894
			s1.294,2.894,2.894,2.894h6.288v21.01c0,7.894,6.574,11.572,11.016,11.572c3.736,0,7.119-0.907,10.652-2.856
			C878.455,486.953,878.964,485.194,878.192,483.794z"/>
		<g>
			<path fill="#2B2B2B" d="M861.727,509.215c-24.545,0-44.515-19.968-44.515-44.512c0-24.544,19.97-44.511,44.515-44.511
				c24.543,0,44.51,19.967,44.51,44.511C906.237,489.247,886.27,509.215,861.727,509.215z M861.727,425.98
				c-21.355,0-38.727,17.371-38.727,38.723c0,21.353,17.373,38.724,38.727,38.724c21.352,0,38.722-17.371,38.722-38.724
				C900.449,443.351,883.079,425.98,861.727,425.98z"/>
		</g>
	</g>
	<g>
		<path fill="#C8C2C7" d="M1288.694,464.703c0-21.352-17.37-38.723-38.722-38.723c-0.79,0-1.562,0.072-2.34,0.119
			c-15.383,6.103-26.284,21.047-26.284,38.604c0,17.557,10.902,32.503,26.285,38.607c0.778,0.047,1.55,0.119,2.339,0.119
			C1271.325,503.427,1288.694,486.056,1288.694,464.703z"/>
		<path fill="#2B2B2B" d="M1270.827,468.551c-0.478-0.195-4.66-2.053-4.706-7.163v-0.004c-0.04-4.009,2.931-6.174,3.937-6.803
			c0.65-0.425,1.099-1.095,1.252-1.858c0.15-0.762-0.011-1.553-0.452-2.195c-3.555-5.204-8.979-5.977-10.977-6.057
			c-1.541-0.15-3.007,0.061-4.344,0.405c0.586-0.457,1.121-0.968,1.574-1.516c1.694-2.055,2.84-4.911,2.528-7.755
			c-2.443,0.098-5.4,1.623-7.155,3.677c-1.533,1.778-2.853,4.585-2.575,7.315c-0.443-0.131-1.086-0.386-1.559-0.573
			c-1.676-0.667-3.666-1.474-6.116-1.455c-5.087,0.078-9.883,2.966-12.511,7.539c-5.293,9.181-0.984,21.514,3.205,27.567
			c2.046,2.955,5.115,7.392,9.863,7.39c0.099,0,0.195-0.001,0.294-0.006c1.961-0.076,3.38-0.68,4.519-1.166
			c1.116-0.476,1.925-0.821,3.326-0.821c1.303,0,2.063,0.328,3.112,0.783c1.224,0.528,2.758,1.186,4.957,1.146
			c4.889-0.088,7.71-4.212,9.767-7.222c2.224-3.25,3.343-6.417,3.722-7.621C1272.975,470.711,1272.24,469.13,1270.827,468.551z
			 M1263.991,476.511c-1.871,2.734-3.329,4.672-5.096,4.703c-0.919,0.055-1.56-0.24-2.552-0.67
			c-1.297-0.561-2.911-1.259-5.412-1.259c-2.583,0-4.253,0.712-5.596,1.284c-0.916,0.39-1.577,0.673-2.473,0.707
			c-0.017,0.001-0.037,0.001-0.054,0.001c-1.73,0-3.849-3.061-5.121-4.898c-3.462-5-6.664-14.939-2.948-21.383
			c1.619-2.816,4.525-4.594,7.588-4.639c0.023-0.001,0.045-0.001,0.068-0.001c1.181,0,2.524,0.533,3.821,1.049
			c1.382,0.55,2.69,1.068,4.073,1.068c1.294,0,2.535-0.489,3.971-1.056c1.608-0.633,3.42-1.349,5.209-1.174
			c0.952,0.04,2.953,0.297,4.773,1.639c-1.896,1.935-3.954,5.072-3.909,9.561c0.054,5.959,3.42,9.39,5.839,11.087
			C1265.681,473.659,1264.969,475.082,1263.991,476.511z"/>
		<g>
			<path fill="#2B2B2B" d="M1249.973,509.215c-24.545,0-44.515-19.968-44.515-44.512c0-24.544,19.97-44.511,44.515-44.511
				c24.543,0,44.51,19.967,44.51,44.511C1294.482,489.247,1274.516,509.215,1249.973,509.215z M1249.973,425.98
				c-21.355,0-38.727,17.371-38.727,38.723c0,21.353,17.373,38.724,38.727,38.724c21.352,0,38.722-17.371,38.722-38.724
				C1288.694,443.351,1271.325,425.98,1249.973,425.98z"/>
		</g>
	</g>
	<g>
		<path fill="#EE9B53" d="M1474.677,464.703c0-21.352-17.373-38.723-38.724-38.723c-0.789,0-1.561,0.072-2.339,0.119
			c-15.383,6.102-26.284,21.047-26.284,38.604c0,17.557,10.902,32.503,26.285,38.607c0.778,0.047,1.549,0.119,2.338,0.119
			C1457.304,503.427,1474.677,486.056,1474.677,464.703z"/>
		<g>
			<ellipse fill="#2B2B2B" cx="1423.402" cy="475.523" rx="4.538" ry="4.564"/>
			<path fill="#2B2B2B" d="M1428.825,444.636h-9.959c-1.6,0-2.894,1.296-2.894,2.894s1.294,2.894,2.894,2.894h9.959
				c11.127,0,20.179,9.052,20.179,20.179v9.485c0,1.598,1.294,2.894,2.894,2.894s2.894-1.296,2.894-2.894v-9.485
				C1454.792,456.284,1443.142,444.636,1428.825,444.636z"/>
			<path fill="#2B2B2B" d="M1425.479,456.346h-6.613c-1.6,0-2.894,1.296-2.894,2.894c0,1.598,1.294,2.894,2.894,2.894h6.613
				c6.514,0,11.813,5.299,11.813,11.813v6.14c0,1.598,1.294,2.894,2.894,2.894s2.894-1.296,2.894-2.894v-6.14
				C1443.08,464.242,1435.184,456.346,1425.479,456.346z"/>
		</g>
		<g>
			<path fill="#2B2B2B" d="M1435.953,509.215c-24.545,0-44.515-19.968-44.515-44.512c0-24.544,19.97-44.511,44.515-44.511
				s44.512,19.967,44.512,44.511C1480.465,489.247,1460.498,509.215,1435.953,509.215z M1435.953,425.98
				c-21.355,0-38.727,17.371-38.727,38.723c0,21.353,17.373,38.724,38.727,38.724c21.352,0,38.724-17.371,38.724-38.724
				C1474.677,443.351,1457.304,425.98,1435.953,425.98z"/>
		</g>
	</g>
	<g>
		<path fill="#6EC6F0" d="M202.306,464.702c0-21.352-17.371-38.723-38.724-38.723c-0.789,0-1.56,0.072-2.337,0.118
			c-15.383,6.102-26.285,21.047-26.285,38.604c0,17.558,10.903,32.506,26.288,38.608c0.776,0.047,1.546,0.118,2.334,0.118
			C184.935,503.428,202.306,486.055,202.306,464.702z"/>
		<path fill="#2B2B2B" d="M188.604,452.724c1.684-1.229,2.681-2.108,2.745-2.165c1.194-1.06,1.301-2.887,0.243-4.081
			c-1.061-1.197-2.891-1.303-4.084-0.249c-0.016,0.015-1.267,1.112-3.331,2.54c-2.939-3.179-7.118-4.533-11.259-3.344
			c-5.389,1.555-8.699,6.794-8.058,12.191c-3.327-0.495-7.212-1.622-10.94-4.043c-6.593-4.279-8.387-6.148-8.792-6.636
			c-0.325-0.927-1.112-1.663-2.138-1.878c-1.523-0.314-3.014,0.615-3.398,2.115c-0.049,0.198-0.089,0.398-0.106,0.609
			c-0.36,2.494-1.981,16.283,4.86,24.342c0.727,0.856,1.529,1.603,2.384,2.27l-6.801,4.301c-0.855,0.541-1.365,1.489-1.347,2.503
			c0.02,1.012,0.567,1.94,1.443,2.447c0.579,0.335,9.914,5.64,20.583,5.64c5.329,0,10.991-1.324,16.06-5.252
			c9.24-7.163,11.551-17.873,11.253-25.096c1.693-0.458,2.429-0.727,2.526-0.764c1.491-0.561,2.243-2.22,1.689-3.714
			C191.603,453.025,190.049,452.303,188.604,452.724z M145.251,448.364c0.01-0.057,0.017-0.113,0.023-0.168
			c-0.006,0.057-0.013,0.114-0.023,0.172V448.364z M173.12,479.458c-8.353,6.478-19.454,3.681-25.604,1.289l5.231-3.308
			c0.056-0.036,0.085-0.094,0.138-0.132c1.544,0.371,3.19,0.58,4.963,0.58c0.021,0,0.045,0,0.066,0
			c1.6-0.004,2.891-1.303,2.887-2.901c-0.004-1.597-1.299-2.887-2.894-2.887c-0.04,0.01-0.041,0.001-0.061,0
			c-3.986,0-6.958-1.214-9.082-3.709c-3.195-3.756-3.906-9.634-3.917-14.053c1.526,1.152,3.465,2.498,5.921,4.092
			c11.158,7.241,23.312,5.039,23.822,4.937c1.57-0.3,2.6-1.814,2.302-3.384c-0.3-1.57-1.819-2.592-3.384-2.302
			c-0.032,0.006-1.064,0.193-2.748,0.263c-0.01-0.042,0.002-0.084-0.01-0.126c-0.844-2.924,0.849-5.987,3.772-6.829
			c3.185-0.916,5.791,1.403,6.95,4.111C182.642,457.83,183.54,471.38,173.12,479.458z"/>
		<g>
			<path fill="#2B2B2B" d="M163.582,509.216c-24.544,0-44.512-19.968-44.512-44.514c0-24.544,19.968-44.511,44.512-44.511
				s44.512,19.967,44.512,44.511C208.094,489.248,188.126,509.216,163.582,509.216z M163.582,425.979
				c-21.353,0-38.724,17.371-38.724,38.723c0,21.353,17.371,38.726,38.724,38.726s38.724-17.373,38.724-38.726
				C202.306,443.35,184.935,425.979,163.582,425.979z"/>
		</g>
	</g>
	<g>
		<path fill="#E85F63" d="M296.166,497.465c0,0.94,0.265,1.812,0.693,2.585h57.734c1.502,0,2.723-1.159,2.723-2.585v-65.522
			c0-1.426-1.221-2.586-2.723-2.586h-57.734c-0.428,0.773-0.693,1.645-0.693,2.585V497.465z M337.033,460.84v0.119h-0.077
			C336.981,460.92,337.009,460.88,337.033,460.84z M325.08,460.84v0.119h-0.077C325.028,460.92,325.056,460.88,325.08,460.84z"/>
		<g>
			<path fill="#2B2B2B" d="M337.306,461.775h-30.187c-4.799,0-8.688,3.894-8.688,8.691v6.983c0,4.798,3.889,8.689,8.688,8.689
				h30.187c4.798,0,8.688-3.892,8.688-8.689v-6.983C345.994,465.669,342.103,461.775,337.306,461.775z M313.461,467.212h-2.806
				v13.944h-2.711v-13.944h-2.805v-2.373h8.323V467.212z M321.389,481.157h-2.406v-1.319c-0.447,0.488-0.907,0.86-1.389,1.112
				c-0.48,0.261-0.945,0.385-1.398,0.385c-0.558,0-0.973-0.178-1.257-0.538c-0.279-0.36-0.422-0.893-0.422-1.613v-10.064h2.405
				v9.235c0,0.285,0.052,0.49,0.149,0.616c0.104,0.132,0.27,0.192,0.495,0.192c0.173,0,0.4-0.083,0.671-0.252
				c0.273-0.17,0.52-0.385,0.746-0.647v-9.144h2.406V481.157z M330.12,478.671c0,0.85-0.188,1.504-0.566,1.96
				c-0.374,0.455-0.923,0.68-1.635,0.68c-0.474,0-0.893-0.085-1.26-0.261c-0.367-0.174-0.714-0.444-1.028-0.815v0.922h-2.433V464.84
				h2.433v5.255c0.326-0.364,0.671-0.645,1.03-0.835c0.368-0.194,0.738-0.287,1.112-0.287c0.761,0,1.342,0.254,1.743,0.767
				c0.403,0.513,0.603,1.265,0.603,2.251V478.671z M338.464,475.427h-4.602v2.268c0,0.634,0.077,1.073,0.235,1.319
				c0.16,0.246,0.432,0.366,0.815,0.366c0.401,0,0.677-0.104,0.837-0.312c0.156-0.209,0.24-0.665,0.24-1.374v-0.548h2.476v0.617
				c0,1.235-0.299,2.163-0.908,2.791c-0.599,0.62-1.5,0.93-2.699,0.93c-1.079,0-1.929-0.329-2.546-0.992
				c-0.617-0.657-0.93-1.569-0.93-2.73v-5.407c0-1.04,0.342-1.896,1.024-2.553c0.681-0.657,1.555-0.984,2.634-0.984
				c1.101,0,1.948,0.304,2.54,0.913c0.591,0.61,0.886,1.483,0.886,2.625V475.427z"/>
			<path fill="#2B2B2B" d="M334.934,470.926c-0.385,0-0.657,0.108-0.824,0.333c-0.17,0.211-0.249,0.574-0.249,1.079v1.216h2.127
				v-1.216c0-0.506-0.086-0.868-0.254-1.079C335.572,471.034,335.301,470.926,334.934,470.926z"/>
			<path fill="#2B2B2B" d="M326.637,470.885c-0.171,0-0.343,0.037-0.51,0.116c-0.168,0.077-0.332,0.204-0.496,0.368v7.5
				c0.194,0.194,0.385,0.343,0.57,0.429c0.187,0.083,0.377,0.129,0.581,0.129c0.296,0,0.511-0.085,0.65-0.258
				c0.136-0.17,0.208-0.444,0.208-0.829v-6.218c0-0.409-0.082-0.715-0.252-0.926C327.211,470.99,326.961,470.885,326.637,470.885z"
				/>
			<polygon fill="#2B2B2B" points="311.071,457.593 314.121,457.593 314.121,450.136 317.67,439.616 314.572,439.616 
				312.684,446.802 312.492,446.802 310.511,439.616 307.439,439.616 311.071,450.471 			"/>
			<path fill="#2B2B2B" d="M321.802,457.928c1.231,0,2.197-0.323,2.902-0.968c0.699-0.649,1.049-1.534,1.049-2.669v-6.851
				c0-1.009-0.358-1.841-1.07-2.482c-0.718-0.639-1.637-0.961-2.759-0.961c-1.23,0-2.212,0.305-2.94,0.913
				c-0.728,0.609-1.093,1.423-1.093,2.454v6.874c0,1.127,0.356,2.02,1.065,2.689C319.667,457.593,320.617,457.928,321.802,457.928z
				 M320.679,447.263c0-0.288,0.103-0.521,0.307-0.703c0.21-0.178,0.477-0.265,0.808-0.265c0.359,0,0.648,0.087,0.869,0.265
				c0.22,0.182,0.331,0.415,0.331,0.703v7.225c0,0.354-0.109,0.635-0.326,0.839c-0.216,0.203-0.508,0.304-0.874,0.304
				c-0.358,0-0.634-0.097-0.827-0.3c-0.191-0.2-0.288-0.479-0.288-0.842V447.263z"/>
			<path fill="#2B2B2B" d="M329.842,457.787c0.509,0,1.031-0.145,1.57-0.424c0.544-0.283,1.064-0.697,1.56-1.238v1.468h2.709
				v-13.261h-2.709v10.066c-0.252,0.288-0.531,0.525-0.833,0.713c-0.307,0.186-0.559,0.279-0.758,0.279
				c-0.254,0-0.44-0.07-0.55-0.213c-0.113-0.139-0.175-0.365-0.175-0.678v-10.167h-2.704v11.083c0,0.791,0.159,1.381,0.474,1.773
				C328.744,457.586,329.213,457.787,329.842,457.787z"/>
		</g>
		<g>
			<g>
				<path fill="#2B2B2B" d="M354.593,505.838h-64.766c-4.691,0-8.508-3.756-8.508-8.373v-65.522c0-4.618,3.817-8.374,8.508-8.374
					h64.766c4.693,0,8.511,3.756,8.511,8.374v65.522C363.104,502.082,359.286,505.838,354.593,505.838z M289.827,429.357
					c-1.499,0-2.72,1.16-2.72,2.586v65.522c0,1.426,1.221,2.585,2.72,2.585h64.766c1.502,0,2.723-1.159,2.723-2.585v-65.522
					c0-1.426-1.221-2.586-2.723-2.586H289.827z"/>
			</g>
		</g>
	</g>
	<g>
		<path fill="#2B2B2B" d="M680.206,703.138c-24.544,0-44.512-19.968-44.512-44.514c0-24.544,19.968-44.511,44.512-44.511
			s44.512,19.967,44.512,44.511C724.719,683.169,704.75,703.138,680.206,703.138z M680.206,619.901
			c-21.353,0-38.724,17.371-38.724,38.723c0,21.353,17.371,38.726,38.724,38.726c21.353,0,38.724-17.373,38.724-38.726
			C718.931,637.272,701.56,619.901,680.206,619.901z"/>
	</g>
	<g>
		<path fill="#3EB6AD" d="M900.449,658.624c0-21.352-17.37-38.723-38.722-38.723c-0.789,0-1.56,0.072-2.338,0.119
			c-15.383,6.102-26.285,21.047-26.285,38.604c0,17.558,10.903,32.506,26.288,38.608c0.777,0.047,1.547,0.118,2.336,0.118
			C883.079,697.349,900.449,679.977,900.449,658.624z"/>
		<path fill="#2B2B2B" d="M873.215,642.129c3.309,0,6.107,3.933,6.107,8.589c0,1.598,1.294,2.894,2.894,2.894
			s2.894-1.296,2.894-2.894c0-7.927-5.336-14.377-11.895-14.377s-11.898,6.449-11.898,14.377c0,6.263,3.354,11.547,8.048,13.513
			c-2.04,3.631-5.918,7.877-8.67,10.596c-2.151-2.445-5.675-6.947-7.959-12.449c-3.386-8.144-5.107-18.544-5.124-18.649
			c-0.257-1.577-1.738-2.641-3.324-2.39c-1.577,0.257-2.648,1.744-2.391,3.321c0.073,0.452,1.843,11.161,5.491,19.939
			c3.954,9.516,10.909,16.15,11.203,16.429c0.557,0.526,1.272,0.79,1.987,0.79c0.692,0,1.385-0.247,1.933-0.742
			c1.064-0.954,9.93-9.055,12.947-16.074l5.664-0.242c1.597-0.068,2.835-1.417,2.767-3.014c-0.065-1.598-1.427-2.832-3.016-2.768
			l-7.659,0.329c-3.312,0-6.11-3.933-6.11-8.589C867.105,646.061,869.903,642.129,873.215,642.129z"/>
		<g>
			<path fill="#2B2B2B" d="M861.727,703.138c-24.545,0-44.515-19.968-44.515-44.514c0-24.544,19.97-44.511,44.515-44.511
				c24.543,0,44.51,19.967,44.51,44.511C906.237,683.169,886.27,703.138,861.727,703.138z M861.727,619.901
				c-21.355,0-38.727,17.371-38.727,38.723c0,21.353,17.373,38.726,38.727,38.726c21.352,0,38.722-17.373,38.722-38.726
				C900.449,637.272,883.079,619.901,861.727,619.901z"/>
		</g>
	</g>
	<g>
		<path fill="#E85F63" d="M1090.061,658.624c0-21.352-17.373-38.723-38.724-38.723c-0.789,0-1.56,0.072-2.338,0.119
			c-15.383,6.102-26.285,21.047-26.285,38.604c0,17.558,10.903,32.506,26.288,38.608c0.777,0.047,1.547,0.118,2.335,0.118
			C1072.689,697.349,1090.061,679.977,1090.061,658.624z"/>
		<g>
			<path fill="#2B2B2B" d="M1053.296,662.158l13.701-12.642c0.158-0.145,0.243-0.33,0.361-0.499h7.083
				c1.6,0,2.894-1.296,2.894-2.894s-1.294-2.894-2.894-2.894h-18.268c-1.6,0-2.894,1.296-2.894,2.894s1.294,2.894,2.894,2.894h2.832
				l-8.943,8.251l-9.561-12.411h5.723c1.6,0,2.894-1.296,2.894-2.894s-1.294-2.894-2.894-2.894h-22.429
				c-1.6,0-2.894,1.296-2.894,2.894s1.294,2.894,2.894,2.894h9.489c0.061,0.104,0.082,0.221,0.157,0.319l13.379,17.367v7.455h-8.883
				c-1.6,0-2.894,1.296-2.894,2.894s1.294,2.894,2.894,2.894h22.429c1.6,0,2.894-1.296,2.894-2.894s-1.294-2.894-2.894-2.894h-7.758
				v-7.413C1052.848,662.466,1053.09,662.348,1053.296,662.158z"/>
			<path fill="#2B2B2B" d="M1075.913,650.828c-1.639-0.172-2.996,1.043-3.131,2.634l-1.082,12.534
				c-0.138,1.593,1.04,2.994,2.634,3.131c0.085,0.008,0.17,0.011,0.251,0.011c1.487,0,2.75-1.138,2.88-2.645l1.083-12.534
				C1078.686,652.367,1077.507,650.965,1075.913,650.828z"/>
			<circle fill="#2B2B2B" cx="1073.614" cy="673.286" r="2.929"/>
		</g>
		<g>
			<path fill="#2B2B2B" d="M1051.337,703.138c-24.545,0-44.515-19.968-44.515-44.514c0-24.544,19.97-44.511,44.515-44.511
				s44.512,19.967,44.512,44.511C1095.849,683.169,1075.882,703.138,1051.337,703.138z M1051.337,619.901
				c-21.355,0-38.727,17.371-38.727,38.723c0,21.353,17.373,38.726,38.727,38.726c21.352,0,38.724-17.373,38.724-38.726
				C1090.061,637.272,1072.689,619.901,1051.337,619.901z"/>
		</g>
	</g>
	<g>
		<path fill="#F9E977" d="M1288.694,658.624c0-21.352-17.37-38.723-38.722-38.723c-0.789,0-1.561,0.072-2.339,0.119
			c-15.383,6.102-26.285,21.047-26.285,38.604c0,17.558,10.903,32.505,26.288,38.608c0.777,0.047,1.548,0.118,2.336,0.118
			C1271.325,697.349,1288.694,679.977,1288.694,658.624z"/>
		<path fill="#2B2B2B" d="M1260.588,645.729h-4.14l1.241-2.994c2.066-4.133,1.817-6.974-0.868-9.81
			c-0.718-0.756-1.764-1.207-2.764-1.153c-1.034,0.021-2.018,0.48-2.699,1.263l-9.697,11.139c-0.88,1.008-1.555,1.982-2.079,2.978
			c-0.866-0.886-2.07-1.44-3.404-1.44h-2.804c-2.628,0-4.765,2.138-4.765,4.765v25.003c0,2.627,2.137,4.765,4.765,4.765h2.804
			c1.293,0,2.464-0.521,3.323-1.36c0.91,0.837,2.112,1.36,3.443,1.36h11.641c9.233,0,16.745-7.512,16.745-16.745v-7.027
			C1271.33,650.549,1266.512,645.729,1260.588,645.729z M1237.407,674.457h-3.009V651.5h3.009V674.457z M1265.542,663.5
			c0,6.042-4.915,10.957-10.957,10.957h-10.957v-16.6c0-5.999,0.382-7.568,2.397-9.882l6.17-7.088l-2.258,5.433
			c-0.449,1.177-0.291,2.5,0.424,3.537c0.715,1.039,1.896,1.659,3.157,1.659h7.071c2.733,0,4.954,2.223,4.954,4.956V663.5z"/>
		<g>
			<path fill="#2B2B2B" d="M1249.973,703.138c-24.545,0-44.515-19.968-44.515-44.514c0-24.544,19.97-44.511,44.515-44.511
				c24.543,0,44.51,19.967,44.51,44.511C1294.482,683.169,1274.516,703.138,1249.973,703.138z M1249.973,619.901
				c-21.355,0-38.727,17.371-38.727,38.723c0,21.353,17.373,38.726,38.727,38.726c21.352,0,38.722-17.373,38.722-38.726
				C1288.694,637.272,1271.325,619.901,1249.973,619.901z"/>
		</g>
	</g>
	<g>
		<path fill="#A8D381" d="M202.306,658.622c0-21.352-17.371-38.722-38.724-38.722c-0.789,0-1.56,0.072-2.337,0.118
			c-15.383,6.102-26.285,21.047-26.285,38.604c0,17.558,10.903,32.506,26.288,38.608c0.776,0.047,1.546,0.118,2.334,0.118
			C184.935,697.349,202.306,679.977,202.306,658.622z"/>
		<path fill="#2B2B2B" d="M173.949,670.157c-1.476,0-2.844,0.445-3.994,1.195l-16.96-11.307c0.079-0.431,0.133-0.87,0.133-1.323
			c0-0.453-0.055-0.893-0.134-1.324l16.446-10.964c1.151,0.75,2.519,1.195,3.995,1.195c4.052,0,7.336-3.285,7.336-7.336
			s-3.284-7.336-7.336-7.336s-7.336,3.284-7.336,7.336c0,0.453,0.055,0.893,0.134,1.324l-16.446,10.964
			c-1.151-0.75-2.519-1.195-3.995-1.195c-4.052,0-7.336,3.284-7.336,7.336s3.284,7.336,7.336,7.336c1.476,0,2.844-0.445,3.995-1.195
			l16.96,11.307c-0.079,0.431-0.134,0.87-0.134,1.324c0,4.052,3.284,7.336,7.336,7.336c4.052,0,7.336-3.284,7.336-7.336
			S178.001,670.157,173.949,670.157z"/>
		<g>
			<path fill="#2B2B2B" d="M163.582,703.138c-24.544,0-44.512-19.97-44.512-44.515c0-24.543,19.968-44.51,44.512-44.51
				s44.512,19.967,44.512,44.51C208.094,683.168,188.126,703.138,163.582,703.138z M163.582,619.901
				c-21.353,0-38.724,17.37-38.724,38.722c0,21.355,17.371,38.727,38.724,38.727s38.724-17.373,38.724-38.727
				C202.306,637.27,184.935,619.901,163.582,619.901z"/>
		</g>
	</g>
</g>
</svg>
